<?xml version="1.0" encoding="utf-8"?>
<!-- Generator: Adobe Illustrator 18.0.0, SVG Export Plug-In . SVG Version: 6.00 Build 0)  -->
<!DOCTYPE svg PUBLIC "-//W3C//DTD SVG 1.1//EN" "http://www.w3.org/Graphics/SVG/1.1/DTD/svg11.dtd">
<svg version="1.1" id="Layer_1" xmlns="http://www.w3.org/2000/svg" xmlns:xlink="http://www.w3.org/1999/xlink" x="0px" y="0px"
	 viewBox="0 0 20 20" enable-background="new 0 0 20 20" xml:space="preserve">
<g>
	<linearGradient id="SVGID_1_" gradientUnits="userSpaceOnUse" x1="19.7615" y1="22.3525" x2="14.2646" y2="8.9907">
		<stop  offset="0" style="stop-color:#DFF3FA"/>
		<stop  offset="0.5127" style="stop-color:#28A8E0"/>
		<stop  offset="1" style="stop-color:#26518E"/>
	</linearGradient>
	<path fill="url(#SVGID_1_)" d="M17.4,14.6c0,0,1.4,3.1,2.6-0.9c0,0.2-0.9,5.3-4.8,4.7c0,0-0.6-0.1-0.8,0.3c0,0,0.3-0.7,0.3-1.3
		c0,0,0-0.1,0-0.2c0,0,0.2-4.8,1.9-5.9c0,0.3,0,0.5,0.1,0.8c0,0,0.4,1.9-0.6,3.6L17.4,14.6z"/>
	<linearGradient id="SVGID_2_" gradientUnits="userSpaceOnUse" x1="11.9931" y1="8.7663" x2="22.539" y2="18.3871">
		<stop  offset="0" style="stop-color:#DFF3FA"/>
		<stop  offset="0.5127" style="stop-color:#28A8E0"/>
		<stop  offset="1" style="stop-color:#26518E"/>
	</linearGradient>
	<path fill="url(#SVGID_2_)" d="M17.6,7.9c-0.1,0.1-1,1.4-1,3.4c-1.8,1.1-1.9,5.9-1.9,5.9C14.6,16.1,14.5,11.4,17.6,7.9z"/>
	<linearGradient id="SVGID_3_" gradientUnits="userSpaceOnUse" x1="-0.5072" y1="-7.9736" x2="20.3049" y2="25.7043">
		<stop  offset="0" style="stop-color:#DFF3FA"/>
		<stop  offset="0.5127" style="stop-color:#28A8E0"/>
		<stop  offset="1" style="stop-color:#26518E"/>
	</linearGradient>
	<path fill="url(#SVGID_3_)" d="M12.6,1.3c3.3,1,3.3,6.3,3.3,6.3S14.7-1.2,9,3.2c-3.9,3.1-3.3,16.2,1.4,17.6
		c-1.4-0.4-3.2-1.6-4.3-4.9C3.8,8.6,7.2,4.2,7.2,4.1c0,0,0,0,0,0l0.5-1C7.8,3.1,9.4,0.2,12.6,1.3z"/>
	<linearGradient id="SVGID_4_" gradientUnits="userSpaceOnUse" x1="29.098" y1="20.16" x2="-0.2693" y2="5.5688">
		<stop  offset="0" style="stop-color:#DFF3FA"/>
		<stop  offset="0.5127" style="stop-color:#28A8E0"/>
		<stop  offset="1" style="stop-color:#26518E"/>
	</linearGradient>
	<path fill="url(#SVGID_4_)" d="M14.5,18.8c0.2-0.3,0.8-0.3,0.8-0.3s-0.9,1.9-2.7,2.4c-0.2,0.1-0.9,0.2-1.7,0c0,0,0,0-0.1,0
		c0,0-0.1,0-0.1,0c0,0-0.1,0-0.1,0c0,0-0.1,0-0.1,0C5.7,19.4,5.1,6.3,9,3.2c5.6-4.4,6.9,4.3,6.9,4.3s-1.5,0-2.4,1.6
		c0,0,1.6-1.1,1.9-0.6c0,0-1.1,0.5-1.7,1.5c-0.6,1-2.1,0.9-2.8-0.5c-0.5-1-1.1-3.1-0.3-6.2c0,0-2.3,5.1,1.1,7.9c0,0-1.3,0.3-2-1.8
		c0,0,0,0.1,0,0.1c0,0-0.3,1.5,0.5,2.7c0.7,1.1,1.7,0.9,1.9,3.1v0c0,0.1,0,0.3,0,0.4c0,0-0.3-1.5-1.2-1.5c-1,0-2.3-0.6-1.7-4.3
		c0,0.1-1.1,3.1,0.5,4.5c0,0,0.3,4.7,2.7,4.7c1.4,0,2-1.2,2.2-1.7C14.7,18,14.5,18.7,14.5,18.8z M12.9,5.7c0.8-0.6,1.8-0.2,1.8-0.2
		S14,3.2,13.1,3.8C12.6,4.1,12.9,5.7,12.9,5.7z"/>
	<linearGradient id="SVGID_5_" gradientUnits="userSpaceOnUse" x1="12.8734" y1="11.0748" x2="7.1305" y2="15.5614">
		<stop  offset="0" style="stop-color:#DFF3FA"/>
		<stop  offset="0.5127" style="stop-color:#28A8E0"/>
		<stop  offset="1" style="stop-color:#26518E"/>
	</linearGradient>
	<path fill="url(#SVGID_5_)" d="M10.9,11.6c0.9,0.6,1.5,2,1.4,3.8c-0.2-2.2-1.2-2.1-1.9-3.1c-0.8-1.1-0.5-2.7-0.5-2.7
		C9.9,10,10.1,11.1,10.9,11.6z"/>
	<linearGradient id="SVGID_6_" gradientUnits="userSpaceOnUse" x1="0.2072" y1="-0.7431" x2="9.9664" y2="19.7352">
		<stop  offset="0" style="stop-color:#DFF3FA"/>
		<stop  offset="0.5127" style="stop-color:#28A8E0"/>
		<stop  offset="1" style="stop-color:#26518E"/>
	</linearGradient>
	<path fill="url(#SVGID_6_)" d="M7.8,3.1l-0.5,1c0,0,0,0,0,0C7.1,4.2,6.9,4.4,6.7,4.6c-1.6-1-3.2,0.7-4,4.6
		c-0.8,3.8-1.8,3.4-1.9,3.3c0.3,0,0.7-0.2,1-1.1C2.6,9.1,2.5,4.6,5.1,3C6.8,2,7.8,3.1,7.8,3.1z"/>
	<linearGradient id="SVGID_7_" gradientUnits="userSpaceOnUse" x1="10.5279" y1="15.622" x2="-1.2787" y2="3.5824">
		<stop  offset="0" style="stop-color:#DFF3FA"/>
		<stop  offset="0.5127" style="stop-color:#28A8E0"/>
		<stop  offset="1" style="stop-color:#26518E"/>
	</linearGradient>
	<path fill="url(#SVGID_7_)" d="M2.7,9.1c0.8-3.9,2.4-5.6,4-4.6C5.3,6.2,4.9,8.8,4.9,8.8c-1.3-1.3-2.2,1.8-2.2,1.8
		C1.5,14.6,0,12-0.1,11.8c0,0.1,0.4,0.6,0.8,0.7C0.9,12.5,1.9,12.9,2.7,9.1z"/>
</g>
</svg>
