<?xml version="1.0" encoding="utf-8"?>
<!-- Generator: Adobe Illustrator 18.0.0, SVG Export Plug-In . SVG Version: 6.00 Build 0)  -->
<!DOCTYPE svg PUBLIC "-//W3C//DTD SVG 1.1//EN" "http://www.w3.org/Graphics/SVG/1.1/DTD/svg11.dtd">
<svg version="1.1" xmlns="http://www.w3.org/2000/svg" xmlns:xlink="http://www.w3.org/1999/xlink" x="0px" y="0px"
	 viewBox="0 0 20 20" enable-background="new 0 0 20 20" xml:space="preserve">
<g id="Layer_1">
	<g>
		<linearGradient id="SVGID_1_" gradientUnits="userSpaceOnUse" x1="20.901" y1="27.1315" x2="-0.3455" y2="-7.8048">
			<stop  offset="0" style="stop-color:#FDE6E6"/>
			<stop  offset="0.5127" style="stop-color:#EB2227"/>
			<stop  offset="1" style="stop-color:#9A1C1F"/>
		</linearGradient>
		<path fill="url(#SVGID_1_)" d="M3.6,6.7c0,0.1-0.5,1-0.8,2.3c0,0,0,0,0,0c-0.1,0.2-1.6,5.6,4.6,7.3c0,0,0,0,0,0
			c0.3,0.1,0.5,0.2,0.8,0.3c0,0-4.7-0.3-6.9-3.6c0,0-1.5-6.9,2.7-10.2c4.6-3.6,9.4-0.7,9.8-0.2l0,0c-0.9-0.4-2.9-1.1-5.1-0.4
			c0,0,2.7-0.6,4.6,0.7c0,0-1.3-0.1-2.9,0.4c-0.3,0.1-0.6,0.1-0.9,0.2c-0.1,0-0.1,0-0.2,0c-0.4,0-0.8,0-1.2-0.1
			c-0.2,0-0.5-0.1-0.7-0.2c-0.6-0.1-1.1-0.1-1.7,0c-0.1,0-1,0.2-1,0.3c0,0,0.6,3.1,4.5,1.7c0,0,1.5-0.6,2.5-0.7c0.3,0,0.5,0,0.7,0
			c0,0,0,0.9,1.4,1.2c1.1,0.3,1.9,0,1.9,0L16,5.9c0,0-1.1-1.3-2.4-1.6c-0.6-0.1-1.3-0.1-2-0.1c-0.8,0.1-1.7,0.3-2.2,0.6
			c-1,0.4-3,1-4.1-0.6c0,0,1.4-0.3,2.6,0c1,0.3,3.2-0.3,4.1-0.5c0.7-0.1,2.3-0.3,4.1,1.6c1.8,2,3.5,1.5,3.5,1.5h0
			c-0.1,0.2-0.1,0.6,0,0.8c0.2,0.3,0.3,2.2-1.6,3.8c0,0,1.3-2.8-1.6-2.5c-1.9,0.2-2.7,1.2-2.5,1.9c0.3,0.8,1.5,0.9,2.1,0.9
			c0.6,0,1.2-0.2,1.7-0.6c0,0-1,3.7-3.9,3.7c0,0,1.5-0.2,1.5-1.5c0.3-2.3-2.1-1.3-4.6-2.3c-2.3-0.8-3.1-3.5-3.1-3.7c0,0,0,0,0,0
			C7.5,7,7.5,6.7,7.5,6.7S7.4,8,8,9.4c0,0,0.1,2.4,1.7,3.6c0.2,0.4,0.6,0.9,1.2,1.4c0,0-0.2,0-0.5-0.1c-3.7-1.3-4-4.7-4-4.7h0
			c0-0.2,0-0.4,0-0.6c0,0-0.1,0.2-0.1,0.6c0,0,0,0,0,0c-0.1,0.2-1,3.2,1.7,4.8c2.8,1.7,4.4,0.6,5.1,3.5h0c0,0.9-0.4,1.7-0.5,1.8
			c0-0.1,0.9-3.2-2.4-3.4C6.9,16,1.4,13.5,3.6,6.7z"/>
		<linearGradient id="SVGID_2_" gradientUnits="userSpaceOnUse" x1="13.2327" y1="2.6864" x2="10.2995" y2="11.3813">
			<stop  offset="0" style="stop-color:#F8B2B4"/>
			<stop  offset="0.5127" style="stop-color:#EB2227"/>
			<stop  offset="1" style="stop-color:#9A1C1F"/>
		</linearGradient>
		<path fill="url(#SVGID_2_)" d="M16,4.7c2,2.1,3.2,1.9,3.7,1.9c0,0,0,0.1-0.1,0.2h0c0,0-1.6,0.5-3.5-1.5c-1.8-2-3.5-1.7-4.1-1.6
			c-0.9,0.1-3.1,0.7-4.1,0.5c-1.2-0.3-2.6,0-2.6,0C5.2,4.1,5.1,3.9,5.1,3.8c0,0,1.4-0.5,2.6-0.1c0,0,0.6,0.1,1.6,0.1
			c0.3,0,0.7,0,1-0.1C12,3.4,14,2.6,16,4.7z"/>
		<linearGradient id="SVGID_3_" gradientUnits="userSpaceOnUse" x1="6.368" y1="-1.4662" x2="8.6611" y2="18.0532">
			<stop  offset="0" style="stop-color:#F8B2B4"/>
			<stop  offset="0.5127" style="stop-color:#EB2227"/>
			<stop  offset="1" style="stop-color:#9A1C1F"/>
		</linearGradient>
		<path fill="url(#SVGID_3_)" d="M14.3,2.9c0,0-0.2-0.1-0.5-0.2l0,0C13.4,2.1,8.6-0.8,4,2.9c-4.1,3.3-2.7,10.2-2.7,10.2
			c-1-1.5-1.4-3.7-0.6-6.9C3.1-2.5,13.3,0.1,14.3,2.9z"/>
		<linearGradient id="SVGID_4_" gradientUnits="userSpaceOnUse" x1="21.0625" y1="4.2094" x2="5.46" y2="14.3761">
			<stop  offset="0" style="stop-color:#F8B2B4"/>
			<stop  offset="0.5127" style="stop-color:#EB2227"/>
			<stop  offset="1" style="stop-color:#9A1C1F"/>
		</linearGradient>
		<path fill="url(#SVGID_4_)" d="M7.6,7.5c0,0.2,0.8,2.9,3.1,3.7c2.5,0.9,4.8-0.1,4.6,2.3c0-0.1,0-0.2,0-0.4c-0.2-1.1-2-1-2-1
			s-2.6,0.1-4.4-1.8C8,9.4,7.7,8.2,7.6,7.5z"/>
		<linearGradient id="SVGID_5_" gradientUnits="userSpaceOnUse" x1="3.9828" y1="14.3221" x2="11.6698" y2="9.4561">
			<stop  offset="0" style="stop-color:#F8B2B4"/>
			<stop  offset="0.5127" style="stop-color:#EB2227"/>
			<stop  offset="1" style="stop-color:#9A1C1F"/>
		</linearGradient>
		<path fill="url(#SVGID_5_)" d="M8,9.4c0.3,0.7,0.8,1.4,1.5,2c0,0-0.2,0.7,0.2,1.6C8.1,11.9,8,9.4,8,9.4z"/>
		<linearGradient id="SVGID_6_" gradientUnits="userSpaceOnUse" x1="17.6299" y1="-3.2829" x2="4.8246" y2="17.9438">
			<stop  offset="0" style="stop-color:#F8B2B4"/>
			<stop  offset="0.5127" style="stop-color:#EB2227"/>
			<stop  offset="1" style="stop-color:#9A1C1F"/>
		</linearGradient>
		<path fill="url(#SVGID_6_)" d="M6.4,9.6c0,0,0.2,3.4,4,4.7C9.2,14.1,6.4,13.2,6.4,9.6L6.4,9.6z"/>
		<linearGradient id="SVGID_7_" gradientUnits="userSpaceOnUse" x1="10.2242" y1="13.2872" x2="3.2903" y2="20.3915">
			<stop  offset="0" style="stop-color:#F8B2B4"/>
			<stop  offset="0.5127" style="stop-color:#EB2227"/>
			<stop  offset="1" style="stop-color:#9A1C1F"/>
		</linearGradient>
		<path fill="url(#SVGID_7_)" d="M10.9,15.3c1.8,0.5,2.2,1.7,2.2,2.7h0c-0.7-2.9-2.3-1.8-5.1-3.5c-2.7-1.7-1.7-4.7-1.7-4.8
			C6.2,11,6.3,14.1,10.9,15.3z"/>
		<linearGradient id="SVGID_8_" gradientUnits="userSpaceOnUse" x1="4.6094" y1="13.2152" x2="-1.3714" y2="19.0821">
			<stop  offset="0" style="stop-color:#F8B2B4"/>
			<stop  offset="0.5127" style="stop-color:#EB2227"/>
			<stop  offset="1" style="stop-color:#9A1C1F"/>
		</linearGradient>
		<path fill="url(#SVGID_8_)" d="M2.8,9.1c-0.4,2.2,0,5.5,4.6,7.3C1.2,14.7,2.7,9.3,2.8,9.1z"/>
	</g>
</g>
<g id="Layer_2">
</g>
</svg>
