<?xml version="1.0" encoding="utf-8"?>
<!-- Generator: Adobe Illustrator 18.0.0, SVG Export Plug-In . SVG Version: 6.00 Build 0)  -->
<!DOCTYPE svg PUBLIC "-//W3C//DTD SVG 1.1//EN" "http://www.w3.org/Graphics/SVG/1.1/DTD/svg11.dtd">
<svg version="1.1" id="Layer_1" xmlns="http://www.w3.org/2000/svg" xmlns:xlink="http://www.w3.org/1999/xlink" x="0px" y="0px"
	 viewBox="0 0 20 20" enable-background="new 0 0 20 20" xml:space="preserve">
<g>
	
		<radialGradient id="SVGID_1_" cx="12.3604" cy="44.3994" r="65.9716" gradientTransform="matrix(0.1829 0 0 0.1783 8.0846 7.0788)" gradientUnits="userSpaceOnUse">
		<stop  offset="0" style="stop-color:#E2EFD2"/>
		<stop  offset="0.4975" style="stop-color:#85C441"/>
		<stop  offset="1" style="stop-color:#046937"/>
	</radialGradient>
	<path fill="url(#SVGID_1_)" d="M13,6.4c-0.5,2.1-0.2,4.4-0.2,4.4c-0.4-1.7-0.4-3-0.2-4.1C10,8.2,6.1,8.1,5.2,8.1
		c-0.5,2.3,1.4,4.5,1.4,4.5c4.3-0.5,7.9,0.6,7.9,0.6c0.4-0.2,0.4-0.6,0.4-0.6l-0.2-0.3c0,0-1.2-1.2-1.2-3.6c0-0.9,0.1-1.6,0.3-2.2
		C13.5,6.3,13.2,6.3,13,6.4z"/>
	<linearGradient id="SVGID_2_" gradientUnits="userSpaceOnUse" x1="17.3853" y1="2.5172" x2="11.8934" y2="12.0032">
		<stop  offset="0" style="stop-color:#E2EFD2"/>
		<stop  offset="0.4975" style="stop-color:#85C441"/>
		<stop  offset="1" style="stop-color:#046937"/>
	</linearGradient>
	<path fill="url(#SVGID_2_)" d="M15.4,8.5c0.3,0.1,0.7,0.3,0.7,0.3c0-5.3-1.1-5.2-1.1-5.2c-1.1,0.4-1.7,1.5-2,2.7
		c0.2-0.1,0.5-0.1,0.7,0.1c0.5-1.5,1.4-1.9,1.4-1.9c-0.4,0.4-0.6,1.1-0.6,1.1C15.3,6.5,15.4,8.5,15.4,8.5z"/>
	<linearGradient id="SVGID_3_" gradientUnits="userSpaceOnUse" x1="9.3978" y1="3.2592" x2="10.0387" y2="15.6497">
		<stop  offset="0" style="stop-color:#E2EFD2"/>
		<stop  offset="0.4975" style="stop-color:#85C441"/>
		<stop  offset="1" style="stop-color:#046937"/>
	</linearGradient>
	<path fill="url(#SVGID_3_)" d="M12.6,6.8c0.3-2,1.3-2.8,1.3-2.8c-2.4,1.6-7.4,2-7.4,2C5.7,6.6,5.4,7.4,5.2,8.1
		C6.1,8.1,10,8.2,12.6,6.8z"/>
	<linearGradient id="SVGID_4_" gradientUnits="userSpaceOnUse" x1="3.0102" y1="1.1134" x2="20.9508" y2="28.2626">
		<stop  offset="0" style="stop-color:#C1E6F5"/>
		<stop  offset="0.5127" style="stop-color:#28A8E0"/>
		<stop  offset="1" style="stop-color:#282560"/>
	</linearGradient>
	<path fill="url(#SVGID_4_)" d="M1.7,6.3c3-7.2,10.6-6,10.6-6C5.7-1.2,0,4.3,0,10.3c0,0.5,0,0.9,0.1,1.3c0.2-0.6,0.4-1.2,0.8-1.7
		C0.9,8.7,1.2,7.5,1.7,6.3z"/>
	<linearGradient id="SVGID_5_" gradientUnits="userSpaceOnUse" x1="17.366" y1="9.795" x2="8.5564" y2="22.5123">
		<stop  offset="0" style="stop-color:#C1E6F5"/>
		<stop  offset="0.5127" style="stop-color:#28A8E0"/>
		<stop  offset="1" style="stop-color:#282560"/>
	</linearGradient>
	<path fill="url(#SVGID_5_)" d="M14,8.6c2.9,1.1,3.7,3.5,3.2,5.7c0.1,0.5,0.2,1,0.2,1.6c0.2-0.5,0.4-1,0.5-1.6
		C18.6,9.6,14,8.6,14,8.6z"/>
	
		<radialGradient id="SVGID_6_" cx="-2.624" cy="74.8721" r="108.2627" gradientTransform="matrix(0.1829 0 0 0.1783 8.0846 7.0788)" gradientUnits="userSpaceOnUse">
		<stop  offset="6.091370e-02" style="stop-color:#C1E6F5"/>
		<stop  offset="0.1264" style="stop-color:#BAE1F3"/>
		<stop  offset="0.2201" style="stop-color:#A6D6EF"/>
		<stop  offset="0.3308" style="stop-color:#85C6EA"/>
		<stop  offset="0.4536" style="stop-color:#52B2E4"/>
		<stop  offset="0.5127" style="stop-color:#28A8E0"/>
		<stop  offset="0.5818" style="stop-color:#26A8CE"/>
		<stop  offset="0.6878" style="stop-color:#1CA8B9"/>
		<stop  offset="0.7861" style="stop-color:#0EA7A9"/>
		<stop  offset="0.8729" style="stop-color:#02A7A0"/>
		<stop  offset="0.9391" style="stop-color:#00A79C"/>
	</radialGradient>
	<path fill="url(#SVGID_6_)" d="M17.2,14.3c-0.4,1.8-1.8,3.4-3.7,4.2C9,20.3,4.8,18.1,2.9,15.9c-1.2-1.4-2.1-3.6-2-6
		c-0.4,0.5-0.6,1.1-0.8,1.7c0.7,4.6,5.4,8,9.4,8.1c3.1,0.1,6.6-0.9,7.9-3.9C17.4,15.3,17.3,14.7,17.2,14.3z"/>
	<linearGradient id="SVGID_7_" gradientUnits="userSpaceOnUse" x1="16.7872" y1="9.4204" x2="8.0401" y2="22.0475">
		<stop  offset="0" style="stop-color:#C1E6F5"/>
		<stop  offset="0.5127" style="stop-color:#28A8E0"/>
		<stop  offset="1" style="stop-color:#282560"/>
	</linearGradient>
	<path fill="url(#SVGID_7_)" d="M14.1,8.9c0.4,0.2,1.6,1.4,1.9,3.1c0.4,0.4,0.8,1,1,1.6C17.5,10.1,14.1,8.9,14.1,8.9z"/>
	
		<radialGradient id="SVGID_8_" cx="-2.623" cy="74.8731" r="108.2612" gradientTransform="matrix(0.1829 0 0 0.1783 8.0846 7.0788)" gradientUnits="userSpaceOnUse">
		<stop  offset="6.091370e-02" style="stop-color:#C1E6F5"/>
		<stop  offset="0.1264" style="stop-color:#BAE1F3"/>
		<stop  offset="0.2201" style="stop-color:#A6D6EF"/>
		<stop  offset="0.3308" style="stop-color:#85C6EA"/>
		<stop  offset="0.4536" style="stop-color:#52B2E4"/>
		<stop  offset="0.5127" style="stop-color:#28A8E0"/>
		<stop  offset="0.5818" style="stop-color:#26A8CE"/>
		<stop  offset="0.6878" style="stop-color:#1CA8B9"/>
		<stop  offset="0.7861" style="stop-color:#0EA7A9"/>
		<stop  offset="0.8729" style="stop-color:#02A7A0"/>
		<stop  offset="0.9391" style="stop-color:#00A79C"/>
	</radialGradient>
	<path fill="url(#SVGID_8_)" d="M6,17.9c3.7,1.6,9.3,1.5,10.8-3.4c0.1-0.3,0.2-0.6,0.2-0.9c-0.3-0.7-0.6-1.2-1-1.6
		c0.1,0.5,0.1,1.1,0,1.7c-1,5.5-8.6,5.9-11.9,1.8c-1.6-2-2.2-4.4-1.9-6.6C1.7,9,1.4,9.3,1.1,9.6C1,13.2,2.9,16.6,6,17.9z"/>
	<linearGradient id="SVGID_9_" gradientUnits="userSpaceOnUse" x1="5.1591" y1="-0.3549" x2="23.5966" y2="27.5462">
		<stop  offset="0" style="stop-color:#C1E6F5"/>
		<stop  offset="0.5127" style="stop-color:#28A8E0"/>
		<stop  offset="1" style="stop-color:#282560"/>
	</linearGradient>
	<path fill="url(#SVGID_9_)" d="M2.1,8.8C2.4,6.1,4,3.6,6.3,2.4c10-5.1,13.5,5.3,13.5,5.3c0-3.8-3.8-7.5-9.6-7.2
		C4.5,0.8,1.4,5.7,1.1,9.3c0,0.1,0,0.2,0,0.3C1.4,9.3,1.7,9,2.1,8.8z"/>
	<linearGradient id="SVGID_10_" gradientUnits="userSpaceOnUse" x1="3.4986" y1="0.8465" x2="21.3874" y2="27.9172">
		<stop  offset="0" style="stop-color:#C1E6F5"/>
		<stop  offset="0.5127" style="stop-color:#28A8E0"/>
		<stop  offset="1" style="stop-color:#282560"/>
	</linearGradient>
	<path fill="url(#SVGID_10_)" d="M3.1,7.8c1.1-4.7,7-6.3,7-6.3C8.8,1.9,5,2.4,3.1,6.4C2.7,7.2,2.6,7.9,2.5,8.6
		C2.6,8.6,2.8,8.5,3,8.4C3,8.2,3.1,8,3.1,7.8z"/>
	
		<radialGradient id="SVGID_11_" cx="-2.624" cy="74.8731" r="108.2614" gradientTransform="matrix(0.1829 0 0 0.1783 8.0846 7.0788)" gradientUnits="userSpaceOnUse">
		<stop  offset="6.091370e-02" style="stop-color:#C1E6F5"/>
		<stop  offset="0.1264" style="stop-color:#BAE1F3"/>
		<stop  offset="0.2201" style="stop-color:#A6D6EF"/>
		<stop  offset="0.3308" style="stop-color:#85C6EA"/>
		<stop  offset="0.4536" style="stop-color:#52B2E4"/>
		<stop  offset="0.5127" style="stop-color:#28A8E0"/>
		<stop  offset="0.5818" style="stop-color:#26A8CE"/>
		<stop  offset="0.6878" style="stop-color:#1CA8B9"/>
		<stop  offset="0.7861" style="stop-color:#0EA7A9"/>
		<stop  offset="0.8729" style="stop-color:#02A7A0"/>
		<stop  offset="0.9391" style="stop-color:#00A79C"/>
	</radialGradient>
	<path fill="url(#SVGID_11_)" d="M4.9,15.9c1.6,1.8,6.9,3.4,9.7-0.1c1.3-1.6,1.2-3.2,0.7-4.3c-0.2-0.2-0.4-0.3-0.6-0.5
		c0.3,0.8,0.5,1.9,0.3,2.7c-1.4,4.8-6.8,4.1-8.9,2.6C4.1,15,2.5,11.7,3,8.4C2.8,8.5,2.6,8.6,2.5,8.6C2.1,11.6,3.7,14.4,4.9,15.9z"/>
	<linearGradient id="SVGID_12_" gradientUnits="userSpaceOnUse" x1="15.8245" y1="8.7937" x2="7.1505" y2="21.3152">
		<stop  offset="0" style="stop-color:#C1E6F5"/>
		<stop  offset="0.5127" style="stop-color:#28A8E0"/>
		<stop  offset="1" style="stop-color:#282560"/>
	</linearGradient>
	<path fill="url(#SVGID_12_)" d="M14,9.3c0,0,0.4,0.7,0.8,1.7c0.2,0.1,0.4,0.3,0.6,0.5C14.9,10.2,14,9.3,14,9.3z"/>
</g>
</svg>
